<?xml version="1.0" encoding="UTF-8" standalone="no"?>
<!-- Created with Inkscape (http://www.inkscape.org/) -->

<svg
   width="365"
   height="90"
   viewBox="0 0 96.572893 23.812501"
   version="1.1"
   id="svg5"
   inkscape:version="1.1.1 (3bf5ae0d25, 2021-09-20)"
   sodipodi:docname="mi-logo-nombre-completo-blanco-curva.svg"
   inkscape:export-filename="/home/luigi/Documentos/Luigi/mi-logo-blanco.png"
   inkscape:export-xdpi="117.33334"
   inkscape:export-ydpi="117.33334"
   xmlns:inkscape="http://www.inkscape.org/namespaces/inkscape"
   xmlns:sodipodi="http://sodipodi.sourceforge.net/DTD/sodipodi-0.dtd"
   xmlns="http://www.w3.org/2000/svg"
   xmlns:svg="http://www.w3.org/2000/svg">
  <sodipodi:namedview
     id="namedview7"
     pagecolor="#505050"
     bordercolor="#eeeeee"
     borderopacity="1"
     inkscape:pageshadow="0"
     inkscape:pageopacity="0"
     inkscape:pagecheckerboard="0"
     inkscape:document-units="px"
     showgrid="true"
     inkscape:zoom="1.8786869"
     inkscape:cx="233.67385"
     inkscape:cy="91.021021"
     inkscape:window-width="1920"
     inkscape:window-height="999"
     inkscape:window-x="0"
     inkscape:window-y="0"
     inkscape:window-maximized="1"
     inkscape:current-layer="text780-2"
     units="px"
     width="400px"
     showguides="true"
     inkscape:guide-bbox="true">
    <inkscape:grid
       type="xygrid"
       id="grid1188" />
    <sodipodi:guide
       position="75.406248,67.468752"
       orientation="1,0"
       id="guide1304" />
    <sodipodi:guide
       position="64.822915,25.135417"
       orientation="0,-1"
       id="guide1306" />
  </sodipodi:namedview>
  <defs
     id="defs2" />
  <g
     inkscape:label="Capa 1"
     inkscape:groupmode="layer"
     id="layer1">
    <g
       id="g925"
       transform="translate(-25.929167,-4.2333335)">
      <rect
         style="display:inline;fill:#fcd76f;fill-opacity:1;stroke-width:0.21193"
         id="rect7217"
         width="88.425804"
         height="10.978513"
         x="27.4617"
         y="15.763323" />
      <g
         aria-label="Luis Devesa"
         id="text780-2"
         style="font-size:17.6763px;font-family:SpicyRice;-inkscape-font-specification:SpicyRice-Regular;display:inline;fill:#fafaf9;stroke-width:1.24728">
        <path
           d="m 43.719186,20.235561 q -0.302085,-0.06905 -0.716374,-0.120834 -0.405657,-0.05179 -0.854469,-0.07768 -0.440182,-0.02589 -0.880363,-0.03452 -0.43155,-0.01726 -0.785421,-0.01726 -0.345241,-0.0086 -0.569647,-0.0086 -0.224406,0 -0.241668,0 -0.535122,0.0086 -1.156555,0.05179 -0.535122,0.04315 -1.225603,0.120834 -0.681849,0.08631 -1.432747,0.233037 0.17262,-0.664587 0.302086,-1.484533 0.129465,-0.828576 0.215775,-1.752094 0.08631,-0.923518 0.129465,-1.907452 0.04315,-0.983935 0.04315,-1.96787 0,-0.811314 -0.03452,-1.596736 -0.02589,-0.794052 -0.09494,-1.519057 -0.06042,-0.7250043 -0.155358,-1.3723297 -0.08631,-0.6473254 -0.215776,-1.1824478 0.897625,0.1639891 1.62263,0.2157751 0.733635,0.051786 1.29465,0.051786 0.353872,0 0.630064,-0.00863 0.276192,-0.017262 0.466074,-0.034524 0.224406,-0.025893 0.388395,-0.051786 Q 40.258152,8.393821 40.094163,9.1188255 39.930174,9.84383 39.80934,10.61199 q -0.112203,0.759528 -0.181251,1.527688 -0.06042,0.768159 -0.06042,1.467271 0,0.888993 0.112203,1.527688 0.112203,0.630063 0.327978,1.03572 0.224406,0.397027 0.535123,0.586909 0.319347,0.189882 0.725004,0.189882 0.543753,0 1.070245,-0.388395 0.535122,-0.397027 0.923517,-1.147924 z"
           id="path7212" />
        <path
           d="m 51.901379,10.163177 q -0.07768,0.388396 -0.146727,0.906256 -0.06042,0.51786 -0.112203,1.122031 -0.04315,0.595539 -0.06905,1.251495 -0.02589,0.647326 -0.02589,1.294651 0,0.215776 0.0086,0.431551 0.0086,0.207144 0.0086,0.405657 0,0.422919 -0.05179,0.958042 -0.04316,0.535122 -0.189882,1.096137 -0.138096,0.552385 -0.388395,1.087507 -0.250299,0.535122 -0.664588,0.949411 -0.405657,0.414288 -0.992565,0.664587 -0.586909,0.25893 -1.389592,0.25893 -0.690481,0 -1.225603,-0.181251 -0.526492,-0.181251 -0.923518,-0.491967 -0.388395,-0.319347 -0.655956,-0.750898 -0.267561,-0.43155 -0.431551,-0.923517 -0.163989,-0.500599 -0.241668,-1.044352 -0.06905,-0.543753 -0.06905,-1.078876 0,-0.129465 0,-0.155358 0.0086,-0.03452 0.0086,-0.04316 0,-0.0086 0.0086,-0.02589 0.0086,-0.02589 0.0086,-0.138096 0,-0.112203 0,-0.353871 0.0086,-0.241668 0.0086,-0.68185 0,-0.51786 -0.01726,-1.165185 -0.01726,-0.655957 -0.07768,-1.277389 -0.05179,-0.630064 -0.155358,-1.139293 -0.103572,-0.509229 -0.267561,-0.742267 0.699111,0.120834 1.311913,0.16399 0.621432,0.04315 1.130662,0.04315 0.336609,0 0.60417,-0.0086 0.276192,-0.01726 0.474705,-0.03452 0.224406,-0.01726 0.405658,-0.04316 -0.172621,0.845839 -0.33661,1.924715 -0.155358,1.070245 -0.155358,2.459836 0,0.319348 0.02589,0.664588 0.03452,0.34524 0.112203,0.638694 0.07768,0.284824 0.207145,0.474706 0.138096,0.181251 0.34524,0.181251 0.25893,0 0.405657,-0.17262 0.146727,-0.17262 0.215775,-0.448813 0.07768,-0.284823 0.08631,-0.630063 0.01726,-0.34524 0.01726,-0.690481 -0.0086,-1.12203 -0.06905,-2.097334 -0.02589,-0.414288 -0.06905,-0.837208 -0.03452,-0.422919 -0.08631,-0.794052 -0.05179,-0.379764 -0.120834,-0.673219 -0.06905,-0.302085 -0.155358,-0.474705 0.699111,0.120834 1.294651,0.163989 0.595539,0.04316 1.061613,0.04316 0.310717,0 0.552385,-0.0086 0.250299,-0.01726 0.422919,-0.03452 0.207144,-0.01726 0.362502,-0.04316 z"
           id="path7209" />
        <path
           d="m 56.622541,20.080203 q -0.146727,-0.0086 -0.34524,-0.02589 -0.17262,-0.0086 -0.405657,-0.01726 -0.233038,-0.0086 -0.535123,-0.0086 -0.561015,0 -1.294651,0.05179 -0.733635,0.04315 -1.588105,0.17262 0.163989,-0.327978 0.276192,-0.819945 0.112203,-0.500599 0.181252,-1.061614 0.07768,-0.569647 0.112203,-1.147924 0.04315,-0.578277 0.06042,-1.061614 0.01726,-0.483336 0.01726,-0.819945 0.0086,-0.336609 0.0086,-0.42292 -0.01726,-1.12203 -0.07768,-2.097334 -0.02589,-0.414288 -0.06905,-0.837208 -0.03452,-0.422919 -0.08631,-0.794052 -0.05179,-0.379764 -0.120834,-0.673219 -0.06042,-0.302085 -0.146727,-0.474705 0.699112,0.120834 1.294651,0.163989 0.59554,0.04316 1.078876,0.04316 0.310716,0 0.552384,-0.0086 0.250299,-0.01726 0.42292,-0.03452 0.207144,-0.01726 0.362502,-0.04316 -0.155358,0.776791 -0.25893,1.872929 -0.09494,1.096137 -0.09494,2.347633 0,0.716374 0.03452,1.450009 0.03452,0.733636 0.112203,1.467271 0.07768,0.725005 0.198513,1.432747 0.129465,0.699112 0.310716,1.346437 z M 52.660909,7.7378646 q 0,-0.3970263 0.146727,-0.7422665 0.155359,-0.3538713 0.414289,-0.6128014 0.267561,-0.2675612 0.621432,-0.4142883 0.353871,-0.1553581 0.750898,-0.1553581 0.397026,0 0.742266,0.1553581 0.353871,0.1467271 0.612802,0.4142883 0.267561,0.2589301 0.414288,0.6128014 0.155358,0.3452402 0.155358,0.7422665 0,0.3970263 -0.155358,0.7508975 -0.146727,0.3538712 -0.414288,0.6214324 -0.258931,0.2589302 -0.612802,0.4142883 -0.34524,0.1467271 -0.742266,0.1467271 -0.397027,0 -0.750898,-0.1467271 Q 53.489486,9.3691247 53.221925,9.1101945 52.962995,8.8426333 52.807636,8.4887621 52.660909,8.1348909 52.660909,7.7378646 Z"
           id="path7206" />
        <path
           d="m 64.416339,12.269143 q 0,0.34524 -0.138096,0.621432 -0.138096,0.276192 -0.371133,0.474705 -0.233037,0.189883 -0.543754,0.302086 -0.310716,0.103572 -0.655956,0.103572 -0.397026,0 -0.68185,-0.09494 -0.276192,-0.09494 -0.474705,-0.241669 -0.189882,-0.155358 -0.302085,-0.336609 -0.112203,-0.189882 -0.181251,-0.362502 -0.06042,-0.17262 -0.07768,-0.319347 -0.01726,-0.146727 -0.01726,-0.224406 0.07768,0.146727 0.198513,0.181251 0.120834,0.03452 0.189882,0.03452 0.198513,0 0.284823,-0.103572 0.08631,-0.103572 0.08631,-0.215775 0,-0.06905 -0.03452,-0.155359 -0.03452,-0.08631 -0.120834,-0.155358 -0.08631,-0.07768 -0.224406,-0.129465 -0.138096,-0.05179 -0.34524,-0.05179 -0.129465,0 -0.276193,0.05179 -0.146727,0.05179 -0.267561,0.163989 -0.112203,0.103572 -0.189882,0.267562 -0.07768,0.155358 -0.07768,0.362502 0,0.388395 0.198513,0.655956 0.198513,0.267561 0.517861,0.474706 0.327978,0.198513 0.733635,0.371133 0.414288,0.17262 0.845839,0.362502 0.43155,0.181251 0.837207,0.414288 0.414289,0.224406 0.733636,0.552385 0.327978,0.327978 0.526491,0.785421 0.198513,0.457444 0.198513,1.087507 0,0.802684 -0.327978,1.450009 -0.327978,0.647325 -0.880363,1.1134 -0.543753,0.457443 -1.268757,0.699111 -0.725005,0.250299 -1.527688,0.250299 -0.733636,0 -1.389592,-0.198513 -0.655957,-0.198513 -1.147924,-0.552384 -0.491968,-0.353871 -0.785422,-0.837208 -0.284823,-0.483336 -0.284823,-1.044351 0,-0.42292 0.138096,-0.733636 0.138096,-0.319347 0.379764,-0.526491 0.2503,-0.207144 0.578278,-0.310716 0.336609,-0.103573 0.725004,-0.103573 0.284824,0 0.569647,0.06042 0.284823,0.06042 0.535122,0.181252 0.250299,0.120834 0.448812,0.293454 0.198514,0.17262 0.319348,0.397026 -0.06905,-0.01726 -0.138097,-0.02589 -0.06042,-0.0086 -0.129465,-0.0086 -0.189882,0 -0.302085,0.103572 -0.103572,0.09494 -0.103572,0.319347 0,0.241669 0.198513,0.405658 0.198513,0.163989 0.440182,0.163989 0.138096,0 0.25893,-0.06042 0.120834,-0.06042 0.207144,-0.155358 0.08631,-0.103572 0.129465,-0.224407 0.05179,-0.120834 0.05179,-0.250299 0,-0.224406 -0.155358,-0.483336 -0.146727,-0.25893 -0.422919,-0.43155 -0.543754,-0.33661 -1.02709,-0.578278 -0.483336,-0.241668 -0.888994,-0.457443 -0.405657,-0.215775 -0.733635,-0.43155 -0.319347,-0.215775 -0.543754,-0.500599 -0.224406,-0.293454 -0.34524,-0.681849 -0.120834,-0.397026 -0.120834,-0.958042 0,-0.664587 0.25893,-1.225603 0.267561,-0.569646 0.759529,-0.983934 0.491967,-0.414289 1.208341,-0.647326 0.716373,-0.2416679 1.622629,-0.2416679 0.923517,0 1.553581,0.2157749 0.638694,0.215775 1.02709,0.552385 0.397026,0.336609 0.569646,0.750897 0.17262,0.414288 0.17262,0.819946 z"
           id="path7203" />
        <path
           d="m 78.277735,13.995344 q 0,1.406854 -0.310716,2.416681 -0.310716,1.009828 -0.819945,1.717571 -0.50923,0.699111 -1.156555,1.130661 -0.647326,0.42292 -1.320544,0.664588 -0.664588,0.233037 -1.303282,0.310716 -0.638694,0.07768 -1.130662,0.07768 -0.837207,0 -1.432747,-0.06042 -0.586908,-0.05179 -0.975303,-0.05179 -0.440182,0 -0.975304,0.01726 -0.535122,0.01726 -1.130662,0.06905 0.233037,-0.422919 0.405657,-0.94078 0.181252,-0.526491 0.310717,-1.096137 0.129465,-0.569647 0.215775,-1.147924 0.09494,-0.586908 0.155358,-1.130662 0.138096,-1.277389 0.155358,-2.623826 Q 68.94762,12.010206 68.835415,10.83639 68.783629,10.335797 68.70595,9.835199 68.636902,9.3259697 68.53333,8.8771574 68.429758,8.419714 68.28303,8.0572118 68.144934,7.6947096 67.955052,7.4789344 q 0.638695,0.1035721 1.208341,0.1380961 0.578277,0.034524 1.018459,0.034524 0.284823,0 0.552384,-0.017262 0.267561,-0.017262 0.552385,-0.034524 0.284823,-0.017262 0.60417,-0.034524 0.327978,-0.017262 0.733635,-0.017262 0.586909,0 1.234234,0.08631 0.655957,0.077679 1.277389,0.3193472 0.630064,0.2416682 1.19971,0.6818495 0.569646,0.4401813 1.001197,1.1565548 0.43155,0.716373 0.681849,1.752094 0.25893,1.02709 0.25893,2.451206 z m -4.220562,-0.189882 q 0,-1.009828 -0.06042,-1.683046 -0.06042,-0.673219 -0.181251,-1.078876 -0.112203,-0.414288 -0.284823,-0.586909 -0.17262,-0.17262 -0.397026,-0.17262 -0.198513,0 -0.362502,0.207144 -0.155359,0.198514 -0.267562,0.647326 -0.112203,0.448812 -0.17262,1.156555 -0.06042,0.699111 -0.06042,1.700308 0,1.052983 0.05179,1.760725 0.06042,0.699112 0.163989,1.122031 0.112203,0.422919 0.267562,0.60417 0.163989,0.17262 0.379764,0.17262 0.422919,0 0.673218,-0.923517 0.250299,-0.923518 0.250299,-2.925911 z"
           id="path7200" />
        <path
           d="m 86.5635,12.087892 q 0,0.647325 -0.189882,1.260126 -0.181251,0.612802 -0.647325,1.087507 -0.466074,0.474705 -1.260127,0.759529 -0.785422,0.284823 -2.002393,0.284823 0.03452,0.422919 0.17262,0.707742 0.146727,0.284824 0.34524,0.457444 0.198513,0.17262 0.422919,0.25893 0.224406,0.08631 0.414289,0.120834 0.189882,0.03452 0.319347,0.03452 0.129465,0 0.129465,0 0.535122,-0.06042 0.958042,-0.276192 0.181251,-0.08631 0.353871,-0.215775 0.17262,-0.138096 0.310716,-0.319348 0.146727,-0.189882 0.233037,-0.422919 0.09494,-0.241668 0.112203,-0.552384 0.224406,0.561015 0.310716,1.052982 0.09494,0.483337 0.09494,0.906256 0,0.776791 -0.284824,1.432747 -0.276192,0.647325 -0.768159,1.122031 -0.491968,0.474705 -1.173817,0.733635 -0.673218,0.267561 -1.467271,0.267561 -0.776791,0 -1.501795,-0.267561 -0.716374,-0.267561 -1.277389,-0.845838 -0.552384,-0.586909 -0.888994,-1.519057 -0.327978,-0.932149 -0.327978,-2.261324 0,-1.441378 0.414289,-2.554778 0.414288,-1.113399 1.113399,-1.864297 0.699112,-0.759528 1.613998,-1.147924 0.923518,-0.3970259 1.933346,-0.3970259 0.500598,0 0.958041,0.1122029 0.466075,0.112203 0.811315,0.371133 0.353871,0.258931 0.561015,0.673219 0.207144,0.405657 0.207144,1.001197 z m -4.134251,1.967869 q 0.241668,-0.0086 0.561015,-0.09494 0.319347,-0.09494 0.60417,-0.25893 0.284824,-0.163989 0.474706,-0.405658 0.198513,-0.241668 0.198513,-0.552384 0,-0.198513 -0.138096,-0.319347 -0.138096,-0.120834 -0.353871,-0.120834 -0.302086,0 -0.543754,0.17262 -0.233037,0.17262 -0.405657,0.43155 -0.163989,0.25893 -0.267561,0.569646 -0.103572,0.310717 -0.129465,0.578277 z"
           id="path7197" />
        <path
           d="m 95.686471,10.111391 q -0.440181,1.242865 -0.725004,2.48573 -0.276192,1.242865 -0.474706,2.494361 -0.189882,1.251495 -0.327978,2.502991 -0.138096,1.251496 -0.293454,2.502992 -0.379764,-0.02589 -0.85447,-0.03452 -0.466074,-0.01726 -0.983934,-0.01726 -0.422919,0 -0.863101,0.0086 -0.43155,0.0086 -0.845838,0.03452 -0.414289,0.01726 -0.785422,0.04316 -0.362502,0.03452 -0.655956,0.06905 -0.163989,-1.268758 -0.319348,-2.520254 -0.155358,-1.260126 -0.379764,-2.502991 -0.224406,-1.251496 -0.552384,-2.48573 -0.327978,-1.242865 -0.845839,-2.477099 0.837208,0.103572 1.691677,0.103572 1.191079,0 2.373527,-0.207144 -0.04315,0.466075 -0.06042,0.923518 -0.01726,0.457443 -0.01726,0.914886 0,1.260127 0.138096,2.48573 0.146727,1.216972 0.466074,2.390789 0.267562,-1.122031 0.414289,-2.235431 0.155358,-1.1134 0.155358,-2.23543 0,-0.569647 -0.04315,-1.122031 -0.04315,-0.561015 -0.120834,-1.122031 0.958041,0.103572 1.924714,0.103572 0.975304,0 1.985131,-0.103572 z"
           id="path7194" />
        <path
           d="m 103.41985,12.087892 q 0,0.647325 -0.18988,1.260126 -0.18125,0.612802 -0.64732,1.087507 -0.46608,0.474705 -1.26013,0.759529 -0.78542,0.284823 -2.002394,0.284823 0.03452,0.422919 0.172621,0.707742 0.146727,0.284824 0.34524,0.457444 0.198513,0.17262 0.422923,0.25893 0.2244,0.08631 0.41428,0.120834 0.18989,0.03452 0.31935,0.03452 0.12947,0 0.12947,0 0.53512,-0.06042 0.95804,-0.276192 0.18125,-0.08631 0.35387,-0.215775 0.17262,-0.138096 0.31072,-0.319348 0.14672,-0.189882 0.23303,-0.422919 0.0949,-0.241668 0.11221,-0.552384 0.2244,0.561015 0.31071,1.052982 0.0949,0.483337 0.0949,0.906256 0,0.776791 -0.28482,1.432747 -0.27619,0.647325 -0.76816,1.122031 -0.49197,0.474705 -1.17382,0.733635 -0.67321,0.267561 -1.467267,0.267561 -0.776791,0 -1.501795,-0.267561 -0.716374,-0.267561 -1.277389,-0.845838 -0.552385,-0.586909 -0.888994,-1.519057 -0.327978,-0.932149 -0.327978,-2.261324 0,-1.441378 0.414288,-2.554778 0.414289,-1.113399 1.1134,-1.864297 0.699112,-0.759528 1.613998,-1.147924 0.923518,-0.3970259 1.933347,-0.3970259 0.5006,0 0.95804,0.1122029 0.46607,0.112203 0.81131,0.371133 0.35388,0.258931 0.56102,0.673219 0.20714,0.405657 0.20714,1.001197 z m -4.134248,1.967869 q 0.241669,-0.0086 0.561016,-0.09494 0.319342,-0.09494 0.604172,-0.25893 0.28482,-0.163989 0.4747,-0.405658 0.19852,-0.241668 0.19852,-0.552384 0,-0.198513 -0.1381,-0.319347 -0.1381,-0.120834 -0.35387,-0.120834 -0.30209,0 -0.54375,0.17262 -0.233041,0.17262 -0.405661,0.43155 -0.163989,0.25893 -0.267562,0.569646 -0.103572,0.310717 -0.129465,0.578277 z"
           id="path7191" />
        <path
           d="m 111.29996,12.269143 q 0,0.34524 -0.13809,0.621432 -0.1381,0.276192 -0.37114,0.474705 -0.23303,0.189883 -0.54375,0.302086 -0.31071,0.103572 -0.65596,0.103572 -0.39702,0 -0.68184,-0.09494 -0.2762,-0.09494 -0.47471,-0.241669 -0.18988,-0.155358 -0.30209,-0.336609 -0.1122,-0.189882 -0.18125,-0.362502 -0.0604,-0.17262 -0.0777,-0.319347 -0.0173,-0.146727 -0.0173,-0.224406 0.0777,0.146727 0.19852,0.181251 0.12083,0.03452 0.18988,0.03452 0.19851,0 0.28482,-0.103572 0.0863,-0.103572 0.0863,-0.215775 0,-0.06905 -0.0345,-0.155359 -0.0345,-0.08631 -0.12084,-0.155358 -0.0863,-0.07768 -0.2244,-0.129465 -0.1381,-0.05179 -0.34524,-0.05179 -0.12947,0 -0.2762,0.05179 -0.14672,0.05179 -0.26756,0.163989 -0.1122,0.103572 -0.18988,0.267562 -0.0777,0.155358 -0.0777,0.362502 0,0.388395 0.19852,0.655956 0.19851,0.267561 0.51786,0.474706 0.32797,0.198513 0.73363,0.371133 0.41429,0.17262 0.84584,0.362502 0.43155,0.181251 0.83721,0.414288 0.41429,0.224406 0.73363,0.552385 0.32798,0.327978 0.52649,0.785421 0.19852,0.457444 0.19852,1.087507 0,0.802684 -0.32798,1.450009 -0.32798,0.647325 -0.88036,1.1134 -0.54376,0.457443 -1.26876,0.699111 -0.72501,0.250299 -1.52769,0.250299 -0.73363,0 -1.38959,-0.198513 -0.65596,-0.198513 -1.14793,-0.552384 -0.49196,-0.353871 -0.78542,-0.837208 -0.28482,-0.483336 -0.28482,-1.044351 0,-0.42292 0.1381,-0.733636 0.13809,-0.319347 0.37976,-0.526491 0.2503,-0.207144 0.57828,-0.310716 0.33661,-0.103573 0.725,-0.103573 0.28483,0 0.56965,0.06042 0.28482,0.06042 0.53512,0.181252 0.2503,0.120834 0.44881,0.293454 0.19852,0.17262 0.31935,0.397026 -0.069,-0.01726 -0.1381,-0.02589 -0.0604,-0.0086 -0.12946,-0.0086 -0.18988,0 -0.30209,0.103572 -0.10357,0.09494 -0.10357,0.319347 0,0.241669 0.19852,0.405658 0.19851,0.163989 0.44018,0.163989 0.13809,0 0.25893,-0.06042 0.12083,-0.06042 0.20714,-0.155358 0.0863,-0.103572 0.12947,-0.224407 0.0518,-0.120834 0.0518,-0.250299 0,-0.224406 -0.15536,-0.483336 -0.14672,-0.25893 -0.42292,-0.43155 -0.54375,-0.33661 -1.02709,-0.578278 -0.48333,-0.241668 -0.88899,-0.457443 -0.40566,-0.215775 -0.73363,-0.43155 -0.31935,-0.215775 -0.54376,-0.500599 -0.2244,-0.293454 -0.34524,-0.681849 -0.12083,-0.397026 -0.12083,-0.958042 0,-0.664587 0.25893,-1.225603 0.26756,-0.569646 0.75953,-0.983934 0.49196,-0.414289 1.20834,-0.647326 0.71637,-0.2416679 1.62263,-0.2416679 0.92351,0 1.55358,0.2157749 0.63869,0.215775 1.02709,0.552385 0.39702,0.336609 0.56964,0.750897 0.17262,0.414288 0.17262,0.819946 z"
           id="path7188" />
        <path
           d="m 121.14794,20.235561 q -0.16399,-0.01726 -0.37977,-0.03452 -0.18125,-0.01726 -0.44018,-0.02589 -0.2503,-0.0086 -0.55238,-0.0086 -0.43155,0 -0.94941,0.03452 -0.50923,0.03452 -1.05299,0.129465 l 0.0345,-2.425312 q -0.32798,1.286019 -0.96667,1.985131 -0.63007,0.699111 -1.48454,0.699111 -0.26756,0 -0.60417,-0.06905 -0.33661,-0.06905 -0.69048,-0.267561 -0.34524,-0.189882 -0.68185,-0.535122 -0.32798,-0.34524 -0.58691,-0.888994 -0.25893,-0.552384 -0.41428,-1.329175 -0.15536,-0.785421 -0.15536,-1.855666 0,-1.450009 0.29345,-2.477099 0.29346,-1.03572 0.7509,-1.691677 0.45744,-0.655956 1.00983,-0.958042 0.55238,-0.302085 1.07887,-0.302085 0.44882,0 0.81132,0.129465 0.37113,0.120834 0.65595,0.319348 0.28483,0.189882 0.49197,0.43155 0.20715,0.241668 0.33661,0.483336 -0.0259,-0.293454 -0.0777,-0.621432 -0.0518,-0.336609 -0.12083,-0.690481 0.56101,0.112203 1.13929,0.146727 0.57828,0.03452 1.07024,0.03452 0.58691,0 0.94942,-0.02589 0.20714,-0.0086 0.37976,-0.02589 -0.0949,0.431551 -0.17262,0.966673 -0.0777,0.535122 -0.1381,1.147924 -0.0518,0.60417 -0.0863,1.277389 -0.0259,0.664587 -0.0259,1.363699 0,1.303282 0.12947,2.615194 0.12946,1.311913 0.44881,2.468468 z m -3.54735,-4.945566 v -1.398223 q 0,-0.233037 -0.0259,-0.474706 -0.0259,-0.241668 -0.12083,-0.440181 -0.0863,-0.198513 -0.25893,-0.319347 -0.17262,-0.129465 -0.46608,-0.129465 -0.31071,0 -0.51786,0.215775 -0.19851,0.215775 -0.32798,0.595539 -0.12083,0.371134 -0.17262,0.888994 -0.0432,0.509229 -0.0432,1.1134 0,0.34524 0.0432,0.699111 0.0518,0.353871 0.16399,0.647326 0.11221,0.284823 0.30209,0.466074 0.18988,0.181251 0.46607,0.181251 0.31072,0 0.5006,-0.215775 0.18988,-0.215775 0.28482,-0.535122 0.10358,-0.319348 0.1381,-0.664588 0.0345,-0.353871 0.0345,-0.630063 z"
           id="path7185" />
      </g>
    </g>
  </g>
</svg>
